<svg width="50" height="50" viewBox="0 0 50 50" fill="none" xmlns="http://www.w3.org/2000/svg">
<path d="M0 32.1228L6.27553 31.0253L9.03531 46.8023L2.75978 47.8999L0 32.1228Z" fill="#583EF5"/>
<path d="M11.5224 43.5225C12.6142 42.6272 14.0115 42.1919 15.4187 42.3089L28.3623 43.2865H28.4032C30.8599 43.2704 33.2496 42.4835 35.2353 41.0377L50 26.5651C48.8178 25.7297 47.2278 25.7697 46.0894 26.6636L46.0723 26.6769L38.7235 32.1718C38.9071 32.6085 39.0408 33.0638 39.1231 33.5305C39.204 33.9939 38.8938 34.4358 38.4299 34.5167L26.5054 36.6028C26.4564 36.6109 26.407 36.6152 26.3575 36.6147C25.9141 36.6162 25.5435 36.2774 25.5054 35.8355C25.4674 35.394 25.7742 34.9967 26.2114 34.922L37.2187 32.9967C36.4351 30.9153 34.2834 29.6851 32.0926 30.0657L24.8384 31.3345C23.4112 31.5823 21.9464 31.5057 20.5529 31.1113L19.7413 30.8801C15.7341 29.7303 11.4187 30.8682 8.5 33.8454L10.3578 44.4654L11.5224 43.5225Z" fill="#583EF5"/>
<path d="M27.5623 24.9433C33.8606 24.9433 38.9658 19.8381 38.9658 13.5398C38.9658 7.2419 33.8606 2.13623 27.5623 2.13623C21.2644 2.13623 16.1587 7.2419 16.1587 13.5398C16.1658 19.8353 21.2672 24.9367 27.5623 24.9433ZM25.9742 7.40746C25.9742 6.93648 26.3562 6.55493 26.8268 6.55493C27.2977 6.55493 27.6793 6.93648 27.6793 7.40746V13.8133H32.3321C32.8026 13.8133 33.1846 14.1954 33.1846 14.6659C33.1846 15.1369 32.8026 15.5184 32.3321 15.5184H26.881C26.41 15.5184 25.9742 15.0331 25.9742 14.5622V7.40746Z" fill="#1FD3B8"/>
</svg>
