<svg width="50" height="41" viewBox="0 0 50 41" fill="none" xmlns="http://www.w3.org/2000/svg">
<path d="M39.3649 19.0812L20.8649 1.34768C20.3818 0.884107 19.6182 0.884107 19.1351 1.34768L0.61676 19.0995C0.224915 19.4914 0 20.0312 0 20.583C0 21.7314 0.935059 22.6665 2.08344 22.6665H5V38.4999C5 39.88 6.12 41 7.5 41H14.5834C15.2734 41 15.8334 40.44 15.8334 39.75V28.9166C15.8334 28.688 16.0199 28.4997 16.25 28.4997H23.75C23.9783 28.4997 24.1666 28.688 24.1666 28.9166V39.75C24.1666 40.44 24.7266 41 25.4166 41H32.5C33.88 41 35 39.88 35 38.4999V22.6665H37.9166C39.0649 22.6665 40 21.7314 40 20.583C40 20.0312 39.7751 19.4914 39.3649 19.0812Z" fill="#583EF5"/>
<path d="M37 0C32.0324 0 27.5276 2.63041 24.2034 6.90288C23.9322 7.25292 23.9322 7.74194 24.2034 8.09197C27.5276 12.3696 32.0324 15 37 15C41.9676 15 46.4724 12.3696 49.7966 8.09712C50.0678 7.74708 50.0678 7.25807 49.7966 6.90803C46.4724 2.63041 41.9676 0 37 0ZM37.3563 12.7814C34.0588 12.9822 31.3357 10.3518 31.5431 7.15511C31.7133 4.51956 33.9205 2.38332 36.6437 2.2186C39.9412 2.01784 42.6643 4.64825 42.4569 7.84489C42.2814 10.4753 40.0742 12.6115 37.3563 12.7814ZM37.1915 10.3415C35.4151 10.4496 33.9471 9.03397 34.0641 7.31469C34.1545 5.89396 35.3459 4.74605 36.8138 4.6534C38.5903 4.5453 40.0582 5.96088 39.9412 7.68017C39.8455 9.10604 38.6541 10.2539 37.1915 10.3415Z" fill="#1FD3B8"/>
</svg>
