<svg width="40" height="50" viewBox="0 0 40 50" fill="none" xmlns="http://www.w3.org/2000/svg">
<g clip-path="url(#clip0_98_750)">
<path d="M38.4416 41.0231C37.3352 37.7302 32.9255 35.669 29.7815 34.2874C28.5499 33.7479 25.14 32.8327 24.7302 31.2819C24.5835 30.7232 24.6033 30.1963 24.7236 29.6915C24.5341 29.7277 24.3418 29.7492 24.1429 29.7492H22.0944C20.4589 29.7492 19.13 28.4186 19.13 26.7843C19.13 25.151 20.4595 23.8232 22.0944 23.8232H24.1429C24.8197 23.8232 25.4614 24.0523 25.9789 24.4611C26.7375 24.36 27.4693 24.1979 28.1516 23.9853C29.0476 22.1082 29.7464 19.8635 29.9029 17.9314C30.5715 9.66469 25.5037 4.82815 18.2373 5.66427C12.9542 6.27241 9.79813 10.2118 9.45698 15.2835C9.11199 20.4529 11.0287 24.271 13.0646 27.0716C13.9562 28.2961 14.8929 29.0833 14.7489 30.5589C14.5819 32.3037 12.7163 32.7898 11.3819 33.326C9.80088 33.9611 8.09788 34.9246 7.29362 35.3702C4.52321 36.9001 1.48253 38.7427 0.79913 41.2631C-0.714347 46.849 4.39686 48.541 8.61647 49.3222C12.2378 49.9902 16.3212 50.0429 19.68 50.0429C25.7553 50.0429 36.6798 49.7996 38.4416 45.2328C38.9426 43.9368 38.7278 41.8718 38.4416 41.0231Z" fill="#583EF5"/>
<path d="M25.4396 25.9498C25.1617 25.5262 24.6865 25.245 24.1443 25.245H22.0957C21.2409 25.245 20.5515 25.9355 20.5515 26.7859C20.5515 27.6396 21.2409 28.3312 22.0957 28.3312H24.1443C24.7425 28.3312 25.2501 27.9901 25.5061 27.4968C28.3622 27.2721 30.8464 26.3997 32.5901 25.1115C32.9905 25.3697 33.4641 25.5207 33.975 25.5207H34.1035C35.5275 25.5207 36.6789 24.3682 36.6789 22.9426V17.7962C36.6789 16.7711 36.0779 15.8867 35.211 15.4757C34.8331 7.21178 27.9919 0.60083 19.6351 0.60083C11.2783 0.60083 4.43611 7.21178 4.0598 15.4757C3.19127 15.8872 2.59082 16.7711 2.59082 17.7962V22.9426C2.59082 24.3682 3.74337 25.5207 5.164 25.5207H5.2942C6.71594 25.5207 7.86903 24.3682 7.86903 22.9426V17.7962C7.86903 16.786 7.28507 15.9147 6.43631 15.4933C6.80383 8.53024 12.582 2.98009 19.6351 2.98009C26.6856 2.98009 32.4665 8.53024 32.8323 15.4933C31.9847 15.9152 31.4013 16.786 31.4013 17.7962V22.9426C31.4013 23.2843 31.4677 23.6024 31.5847 23.8996C30.0839 24.9736 27.8991 25.7388 25.4396 25.9498Z" fill="#1FD3B8"/>
</g>
<defs>
<clipPath id="clip0_98_750">
<rect width="39.5923" height="50" fill="white"/>
</clipPath>
</defs>
</svg>
