<svg width="15" height="11" viewBox="0 0 15 11" fill="none" xmlns="http://www.w3.org/2000/svg">
<path d="M13.6816 0H1.31836C0.59291 0 0 0.590303 0 1.31836V9.22852C0 9.95684 0.593291 10.5469 1.31836 10.5469H13.6816C14.4071 10.5469 15 9.95657 15 9.22852V1.31836C15 0.590127 14.4068 0 13.6816 0ZM13.4792 0.878906C13.053 1.30655 8.04624 6.32959 7.84055 6.53596C7.66875 6.70828 7.33134 6.7084 7.15945 6.53596L1.5208 0.878906H13.4792ZM0.878906 9.06694V1.47993L4.66011 5.27344L0.878906 9.06694ZM1.5208 9.66797L5.28059 5.89594L6.53698 7.15644C7.05185 7.67297 7.94836 7.67276 8.46305 7.15644L9.71944 5.89597L13.4792 9.66797H1.5208ZM14.1211 9.06694L10.3399 5.27344L14.1211 1.47993V9.06694Z" fill="#8791ED"/>
</svg>
