<svg width="31" height="22" viewBox="0 0 31 22" fill="none" xmlns="http://www.w3.org/2000/svg">
<path d="M6.00623 13.8539C5.34625 15.5139 4.30627 17.1539 2.91626 18.7339C2.47626 19.2339 2.41626 19.9539 2.77625 20.5139C3.05628 20.9539 3.51624 21.1939 4.01624 21.1939C4.15625 21.1939 4.29627 21.1839 4.43628 21.1339C7.37622 20.2739 14.2463 17.2239 14.4363 7.44387C14.5062 3.67391 11.7463 0.433918 8.15625 0.0639179C6.16626 -0.136092 4.18628 0.513868 2.71625 1.83388C1.24628 3.1639 0.40625 5.06392 0.40625 7.0439C0.40625 10.3439 2.74628 13.2339 6.00623 13.8539Z" fill="#583EF5"/>
<path d="M24.1163 0.0639178C22.1362 -0.136092 20.1562 0.513868 18.6863 1.83388C17.2162 3.1639 16.3762 5.06392 16.3762 7.0439C16.3762 10.3439 18.7162 13.2339 21.9763 13.8539C21.3162 15.5139 20.2763 17.1539 18.8862 18.7339C18.4462 19.2339 18.3862 19.9539 18.7463 20.5139C19.0263 20.9539 19.4863 21.1939 19.9863 21.1939C20.1262 21.1939 20.2662 21.1839 20.4062 21.1339C23.3463 20.2739 30.2162 17.2239 30.4062 7.44386V7.30391C30.4062 3.59389 27.6763 0.433918 24.1163 0.0639178Z" fill="#583EF5"/>
</svg>
