<svg width="158" height="208" viewBox="0 0 158 208" fill="none" xmlns="http://www.w3.org/2000/svg">
<path d="M78.9 207.6C61.3 207.6 45.7 204.7 32.1 198.9C18.5 192.9 7.8 185.1 4.24683e-07 175.5L22.2 147C29 154 37.4 159.6 47.4 163.8C57.4 167.8 67.4 169.8 77.4 169.8C89.4 169.8 98.7 167.5 105.3 162.9C111.9 158.1 115.2 151.9 115.2 144.3C115.2 136.3 112 130.5 105.6 126.9C99.2 123.1 89 121.2 75 121.2C62.4 121.2 54.1 121.4 50.1 121.8V83.4C52.5 83.6 60.8 83.7 75 83.7C99.6 83.7 111.9 76.6 111.9 62.4C111.9 54.8 108.4 49 101.4 45C94.6 40.8 85.7 38.7 74.7 38.7C55.3 38.7 38.4 45.6 24 59.4L2.7 32.7C21.5 11.5 47 0.899986 79.2 0.899986C102.6 0.899986 121 5.79999 134.4 15.6C148 25.4 154.8 38.6 154.8 55.2C154.8 67.2 150.5 77.3 141.9 85.5C133.3 93.5 123 98.6 111 100.8C122.8 102 133.5 106.9 143.1 115.5C152.9 123.9 157.8 135 157.8 148.8C157.8 166.2 150.6 180.4 136.2 191.4C121.8 202.2 102.7 207.6 78.9 207.6Z" fill="url(#paint0_linear_174_210)"/>
<defs>
<linearGradient id="paint0_linear_174_210" x1="150.606" y1="-72" x2="150.606" y2="241.212" gradientUnits="userSpaceOnUse">
<stop stop-color="#1B235E"/>
<stop offset="1" stop-color="#583EF5"/>
</linearGradient>
</defs>
</svg>
