<svg width="156" height="204" viewBox="0 0 156 204" fill="none" xmlns="http://www.w3.org/2000/svg">
<path d="M155.7 204H5.1V170.7C47.9 138.9 76.2 116.3 90 102.9C104 89.3 111 76.6 111 64.8C111 56.6 107.8 50.2 101.4 45.6C95 41 87.4 38.7 78.6 38.7C57.6 38.7 39.7 46.4 24.9 61.8L0.6 33.6C10 22.8 21.5 14.7 35.1 9.29999C48.9 3.69999 63.1 0.899986 77.7 0.899986C99.7 0.899986 117.9 6.69999 132.3 18.3C146.9 29.9 154.2 45.4 154.2 64.8C154.2 81.2 147.7 97.3 134.7 113.1C121.9 128.7 101.7 146.5 74.1 166.5H155.7V204Z" fill="url(#paint0_linear_174_209)"/>
<defs>
<linearGradient id="paint0_linear_174_209" x1="147.606" y1="-72" x2="147.606" y2="241.212" gradientUnits="userSpaceOnUse">
<stop stop-color="#1B235E"/>
<stop offset="1" stop-color="#583EF5"/>
</linearGradient>
</defs>
</svg>
